<svg xmlns="http://www.w3.org/2000/svg" xmlns:xlink="http://www.w3.org/1999/xlink" width="191" zoomAndPan="magnify" viewBox="0 0 143.25 30.000001" height="40" preserveAspectRatio="xMidYMid meet" version="1.0"><defs><g/><clipPath id="id1"><path d="M 35.695312 0 L 61.097656 0 L 61.097656 28.304688 L 35.695312 28.304688 Z M 35.695312 0 " clip-rule="nonzero"/></clipPath><clipPath id="id2"><path d="M 50.066406 1.851562 L 58.953125 6.949219 C 59.132812 6.824219 59.351562 6.753906 59.585938 6.753906 C 59.738281 6.753906 59.882812 6.78125 60.015625 6.835938 C 60.152344 6.894531 60.273438 6.976562 60.378906 7.078125 C 60.480469 7.179688 60.5625 7.300781 60.621094 7.4375 C 60.675781 7.570312 60.707031 7.714844 60.707031 7.863281 C 60.707031 8.011719 60.675781 8.15625 60.621094 8.285156 C 60.5625 8.421875 60.480469 8.546875 60.378906 8.648438 C 60.300781 8.722656 60.214844 8.785156 60.121094 8.839844 L 60.121094 8.835938 C 60.101562 8.847656 60.085938 8.855469 60.066406 8.863281 L 60.066406 19.050781 C 60.125 19.074219 60.1875 19.105469 60.246094 19.140625 C 60.445312 19.253906 60.613281 19.402344 60.742188 19.570312 C 60.878906 19.75 60.980469 19.949219 61.035156 20.160156 C 61.277344 21.050781 60.742188 21.984375 59.835938 22.222656 C 59.625 22.277344 59.398438 22.296875 59.175781 22.265625 C 58.992188 22.242188 58.804688 22.183594 58.628906 22.097656 L 58.621094 22.097656 L 58.546875 22.054688 C 58.488281 22.019531 58.433594 21.984375 58.378906 21.941406 L 49.746094 26.890625 C 49.75 26.917969 49.75 26.941406 49.75 26.96875 C 49.75 27.148438 49.714844 27.320312 49.648438 27.480469 C 49.578125 27.644531 49.476562 27.792969 49.355469 27.914062 C 49.230469 28.035156 49.082031 28.136719 48.917969 28.203125 C 48.757812 28.269531 48.582031 28.304688 48.402344 28.304688 C 48.21875 28.304688 48.046875 28.269531 47.886719 28.203125 C 47.71875 28.136719 47.570312 28.035156 47.449219 27.914062 C 47.324219 27.792969 47.226562 27.644531 47.15625 27.480469 C 47.089844 27.324219 47.054688 27.148438 47.054688 26.96875 C 47.054688 26.949219 47.054688 26.925781 47.054688 26.90625 L 38.421875 21.957031 C 38.367188 22 38.304688 22.039062 38.242188 22.074219 C 38.042969 22.1875 37.828125 22.257812 37.613281 22.285156 C 37.390625 22.316406 37.167969 22.300781 36.957031 22.242188 C 36.742188 22.1875 36.539062 22.089844 36.363281 21.953125 C 36.191406 21.824219 36.042969 21.65625 35.925781 21.457031 L 35.925781 21.453125 C 35.8125 21.257812 35.742188 21.046875 35.714844 20.835938 C 35.683594 20.613281 35.699219 20.390625 35.757812 20.179688 C 35.8125 19.96875 35.914062 19.769531 36.050781 19.59375 C 36.179688 19.421875 36.347656 19.273438 36.546875 19.160156 L 36.625 19.117188 L 36.628906 19.117188 C 36.65625 19.101562 36.683594 19.089844 36.710938 19.078125 L 36.710938 8.886719 C 36.6875 8.875 36.664062 8.867188 36.640625 8.851562 C 36.53125 8.800781 36.433594 8.726562 36.351562 8.644531 C 36.25 8.546875 36.167969 8.421875 36.109375 8.285156 C 36.054688 8.152344 36.023438 8.011719 36.023438 7.863281 C 36.023438 7.714844 36.054688 7.570312 36.109375 7.4375 C 36.164062 7.300781 36.25 7.179688 36.351562 7.078125 C 36.554688 6.878906 36.832031 6.753906 37.140625 6.753906 C 37.292969 6.753906 37.4375 6.78125 37.570312 6.839844 C 37.652344 6.871094 37.730469 6.917969 37.800781 6.964844 L 46.691406 1.867188 C 46.683594 1.808594 46.679688 1.746094 46.679688 1.683594 C 46.679688 1.460938 46.726562 1.242188 46.808594 1.042969 C 46.960938 0.679688 47.132812 0.53125 47.417969 0.296875 C 47.515625 0.230469 47.621094 0.175781 47.726562 0.128906 C 47.929688 0.046875 48.148438 0 48.375 0 C 48.605469 0 48.824219 0.046875 49.023438 0.128906 L 49.027344 0.128906 C 49.234375 0.214844 49.421875 0.339844 49.578125 0.496094 C 49.730469 0.648438 49.859375 0.835938 49.945312 1.042969 C 50.027344 1.242188 50.074219 1.460938 50.074219 1.6875 C 50.074219 1.742188 50.070312 1.796875 50.066406 1.855469 Z M 36.453125 20.804688 Z M 38.371094 20.675781 C 38.429688 19.546875 36.796875 19.269531 36.472656 20.355469 C 36.457031 20.425781 36.445312 20.503906 36.441406 20.578125 C 36.4375 20.65625 36.441406 20.730469 36.453125 20.808594 C 36.664062 21.914062 38.316406 21.804688 38.371094 20.675781 Z M 47.429688 1.628906 C 47.425781 1.707031 47.429688 1.78125 47.441406 1.859375 C 47.488281 2.097656 47.621094 2.300781 47.800781 2.441406 C 47.984375 2.578125 48.214844 2.65625 48.460938 2.640625 C 48.707031 2.621094 48.925781 2.515625 49.085938 2.355469 C 49.25 2.191406 49.351562 1.972656 49.363281 1.726562 C 49.375 1.484375 49.296875 1.253906 49.152344 1.078125 C 49.007812 0.898438 48.800781 0.769531 48.558594 0.730469 C 48.316406 0.6875 48.078125 0.742188 47.882812 0.863281 C 47.6875 0.980469 47.535156 1.171875 47.464844 1.40625 C 47.445312 1.480469 47.4375 1.554688 47.433594 1.628906 Z M 58.4375 20.554688 C 58.433594 20.628906 58.4375 20.707031 58.449219 20.78125 C 58.496094 21.019531 58.625 21.222656 58.808594 21.363281 C 58.992188 21.503906 59.222656 21.578125 59.46875 21.5625 C 59.710938 21.546875 59.933594 21.441406 60.09375 21.277344 C 60.253906 21.113281 60.359375 20.894531 60.371094 20.652344 C 60.382812 20.40625 60.304688 20.179688 60.160156 20 C 60.015625 19.820312 59.808594 19.695312 59.566406 19.652344 C 59.324219 19.609375 59.085938 19.664062 58.890625 19.785156 C 58.695312 19.90625 58.542969 20.09375 58.472656 20.328125 C 58.453125 20.402344 58.441406 20.476562 58.4375 20.554688 Z M 38.234375 7.621094 C 38.25 7.699219 38.257812 7.78125 38.257812 7.863281 C 38.257812 8.011719 38.230469 8.15625 38.171875 8.285156 C 38.117188 8.421875 38.035156 8.542969 37.929688 8.644531 C 37.835938 8.738281 37.726562 8.816406 37.601562 8.871094 C 37.570312 8.886719 37.539062 8.898438 37.503906 8.910156 L 37.503906 18.9375 C 37.570312 18.941406 37.632812 18.949219 37.695312 18.960938 L 47.097656 2.789062 C 47.046875 2.734375 47.003906 2.675781 46.964844 2.617188 L 38.230469 7.625 Z M 46.929688 14.445312 L 46.957031 14.460938 C 47.011719 14.488281 47.066406 14.523438 47.113281 14.5625 L 52.867188 11.261719 C 52.851562 11.195312 52.847656 11.125 52.847656 11.058594 C 52.847656 10.910156 52.875 10.769531 52.933594 10.636719 C 52.984375 10.511719 53.054688 10.402344 53.144531 10.308594 L 49.03125 3.238281 C 48.980469 3.257812 48.929688 3.277344 48.875 3.296875 C 48.753906 3.332031 48.628906 3.355469 48.503906 3.367188 L 46.929688 14.449219 Z M 47.53125 15.226562 C 47.542969 15.296875 47.550781 15.367188 47.550781 15.441406 L 47.550781 15.46875 L 57.992188 19.652344 C 58.066406 19.546875 58.144531 19.453125 58.230469 19.371094 C 58.273438 19.335938 58.3125 19.300781 58.355469 19.269531 L 54.210938 12.140625 C 54.132812 12.160156 54.050781 12.167969 53.964844 12.167969 C 53.816406 12.167969 53.671875 12.136719 53.539062 12.082031 C 53.441406 12.042969 53.355469 11.992188 53.277344 11.933594 Z M 47.25 16.195312 C 47.242188 16.207031 47.234375 16.214844 47.222656 16.226562 C 47.023438 16.425781 46.742188 16.550781 46.433594 16.550781 C 46.285156 16.550781 46.136719 16.519531 46.007812 16.464844 C 45.890625 16.417969 45.789062 16.355469 45.699219 16.277344 L 39.011719 20.109375 C 39.027344 20.15625 39.039062 20.199219 39.050781 20.242188 L 39.050781 20.246094 C 39.058594 20.28125 39.066406 20.316406 39.070312 20.355469 L 57.632812 20.355469 Z M 45.324219 15.585938 C 45.320312 15.539062 45.316406 15.488281 45.316406 15.441406 C 45.316406 15.292969 45.34375 15.148438 45.402344 15.015625 C 45.457031 14.878906 45.539062 14.757812 45.644531 14.65625 C 45.742188 14.558594 45.863281 14.476562 45.996094 14.421875 C 46.042969 14.402344 46.09375 14.382812 46.140625 14.371094 L 47.714844 3.292969 L 38.421875 19.277344 C 38.449219 19.296875 38.472656 19.316406 38.5 19.339844 C 38.539062 19.371094 38.570312 19.40625 38.605469 19.441406 L 45.328125 15.585938 Z M 53.964844 9.949219 C 54.113281 9.949219 54.257812 9.980469 54.390625 10.035156 C 54.527344 10.089844 54.652344 10.171875 54.753906 10.277344 C 54.855469 10.375 54.9375 10.5 54.996094 10.636719 C 55.050781 10.769531 55.082031 10.910156 55.082031 11.058594 C 55.082031 11.210938 55.050781 11.351562 54.996094 11.484375 C 54.960938 11.566406 54.917969 11.640625 54.871094 11.710938 L 59.074219 18.941406 C 59.140625 18.929688 59.207031 18.921875 59.273438 18.917969 L 59.273438 8.925781 C 59.234375 8.914062 59.195312 8.902344 59.160156 8.886719 C 59.019531 8.828125 58.898438 8.746094 58.796875 8.644531 C 58.695312 8.546875 58.613281 8.421875 58.554688 8.285156 C 58.5 8.152344 58.46875 8.011719 58.46875 7.863281 C 58.46875 7.773438 58.480469 7.683594 58.503906 7.597656 L 49.796875 2.605469 L 49.675781 2.777344 L 53.851562 9.957031 C 53.886719 9.953125 53.925781 9.949219 53.964844 9.949219 Z M 39.007812 21.140625 C 38.984375 21.207031 38.957031 21.273438 38.929688 21.339844 L 47.320312 26.148438 L 47.449219 26.019531 C 47.695312 25.777344 48.03125 25.628906 48.402344 25.628906 C 48.585938 25.628906 48.757812 25.664062 48.917969 25.730469 L 48.921875 25.730469 C 49.085938 25.800781 49.234375 25.898438 49.359375 26.019531 C 49.394531 26.058594 49.433594 26.101562 49.46875 26.144531 L 57.871094 21.328125 C 57.84375 21.265625 57.816406 21.203125 57.792969 21.140625 Z M 39.007812 21.140625 " clip-rule="nonzero"/></clipPath><linearGradient x1="15.752164" gradientTransform="matrix(0.094293, 0, 0, 0.093637, 35.701042, 0.00000193548)" y1="314.856864" x2="267.220085" gradientUnits="userSpaceOnUse" y2="-1.674971" id="id3"><stop stop-opacity="1" stop-color="rgb(74.031067%, 1.507568%, 80.296326%)" offset="0"/><stop stop-opacity="1" stop-color="rgb(73.561096%, 1.933289%, 80.378723%)" offset="0.00390625"/><stop stop-opacity="1" stop-color="rgb(73.091125%, 2.359009%, 80.462646%)" offset="0.0078125"/><stop stop-opacity="1" stop-color="rgb(72.619629%, 2.783203%, 80.54657%)" offset="0.0117187"/><stop stop-opacity="1" stop-color="rgb(72.149658%, 3.208923%, 80.630493%)" offset="0.015625"/><stop stop-opacity="1" stop-color="rgb(71.679688%, 3.634644%, 80.712891%)" offset="0.0195313"/><stop stop-opacity="1" stop-color="rgb(71.209717%, 4.060364%, 80.796814%)" offset="0.0234375"/><stop stop-opacity="1" stop-color="rgb(70.73822%, 4.486084%, 80.880737%)" offset="0.0273438"/><stop stop-opacity="1" stop-color="rgb(70.26825%, 4.911804%, 80.964661%)" offset="0.03125"/><stop stop-opacity="1" stop-color="rgb(69.798279%, 5.335999%, 81.047058%)" offset="0.0351562"/><stop stop-opacity="1" stop-color="rgb(69.328308%, 5.761719%, 81.130981%)" offset="0.0390625"/><stop stop-opacity="1" stop-color="rgb(68.856812%, 6.187439%, 81.214905%)" offset="0.0429688"/><stop stop-opacity="1" stop-color="rgb(68.386841%, 6.613159%, 81.298828%)" offset="0.046875"/><stop stop-opacity="1" stop-color="rgb(67.91687%, 7.038879%, 81.382751%)" offset="0.0507812"/><stop stop-opacity="1" stop-color="rgb(67.446899%, 7.4646%, 81.466675%)" offset="0.0546875"/><stop stop-opacity="1" stop-color="rgb(66.975403%, 7.888794%, 81.549072%)" offset="0.0585937"/><stop stop-opacity="1" stop-color="rgb(66.505432%, 8.314514%, 81.632996%)" offset="0.0625"/><stop stop-opacity="1" stop-color="rgb(66.035461%, 8.740234%, 81.716919%)" offset="0.0664062"/><stop stop-opacity="1" stop-color="rgb(65.565491%, 9.165955%, 81.800842%)" offset="0.0703125"/><stop stop-opacity="1" stop-color="rgb(65.093994%, 9.591675%, 81.88324%)" offset="0.0742188"/><stop stop-opacity="1" stop-color="rgb(64.624023%, 10.017395%, 81.967163%)" offset="0.078125"/><stop stop-opacity="1" stop-color="rgb(64.152527%, 10.441589%, 82.051086%)" offset="0.0820312"/><stop stop-opacity="1" stop-color="rgb(63.682556%, 10.86731%, 82.13501%)" offset="0.0859375"/><stop stop-opacity="1" stop-color="rgb(63.212585%, 11.29303%, 82.217407%)" offset="0.0898438"/><stop stop-opacity="1" stop-color="rgb(62.742615%, 11.71875%, 82.301331%)" offset="0.09375"/><stop stop-opacity="1" stop-color="rgb(62.271118%, 12.14447%, 82.385254%)" offset="0.0976562"/><stop stop-opacity="1" stop-color="rgb(61.801147%, 12.57019%, 82.469177%)" offset="0.101562"/><stop stop-opacity="1" stop-color="rgb(61.331177%, 12.994385%, 82.553101%)" offset="0.105469"/><stop stop-opacity="1" stop-color="rgb(60.861206%, 13.420105%, 82.637024%)" offset="0.109375"/><stop stop-opacity="1" stop-color="rgb(60.389709%, 13.845825%, 82.719421%)" offset="0.113281"/><stop stop-opacity="1" stop-color="rgb(59.919739%, 14.271545%, 82.803345%)" offset="0.117187"/><stop stop-opacity="1" stop-color="rgb(59.449768%, 14.697266%, 82.887268%)" offset="0.121094"/><stop stop-opacity="1" stop-color="rgb(58.979797%, 15.122986%, 82.971191%)" offset="0.125"/><stop stop-opacity="1" stop-color="rgb(58.508301%, 15.54718%, 83.053589%)" offset="0.128906"/><stop stop-opacity="1" stop-color="rgb(58.03833%, 15.9729%, 83.137512%)" offset="0.132813"/><stop stop-opacity="1" stop-color="rgb(57.568359%, 16.398621%, 83.221436%)" offset="0.136719"/><stop stop-opacity="1" stop-color="rgb(57.098389%, 16.824341%, 83.305359%)" offset="0.140625"/><stop stop-opacity="1" stop-color="rgb(56.626892%, 17.250061%, 83.387756%)" offset="0.144531"/><stop stop-opacity="1" stop-color="rgb(56.156921%, 17.675781%, 83.47168%)" offset="0.148438"/><stop stop-opacity="1" stop-color="rgb(55.686951%, 18.099976%, 83.555603%)" offset="0.152344"/><stop stop-opacity="1" stop-color="rgb(55.21698%, 18.525696%, 83.639526%)" offset="0.15625"/><stop stop-opacity="1" stop-color="rgb(54.745483%, 18.951416%, 83.72345%)" offset="0.160156"/><stop stop-opacity="1" stop-color="rgb(54.275513%, 19.377136%, 83.807373%)" offset="0.164063"/><stop stop-opacity="1" stop-color="rgb(53.805542%, 19.802856%, 83.889771%)" offset="0.167969"/><stop stop-opacity="1" stop-color="rgb(53.335571%, 20.228577%, 83.973694%)" offset="0.171875"/><stop stop-opacity="1" stop-color="rgb(52.864075%, 20.652771%, 84.057617%)" offset="0.175781"/><stop stop-opacity="1" stop-color="rgb(52.394104%, 21.078491%, 84.141541%)" offset="0.179688"/><stop stop-opacity="1" stop-color="rgb(51.922607%, 21.504211%, 84.223938%)" offset="0.183594"/><stop stop-opacity="1" stop-color="rgb(51.452637%, 21.929932%, 84.307861%)" offset="0.1875"/><stop stop-opacity="1" stop-color="rgb(50.982666%, 22.355652%, 84.391785%)" offset="0.191406"/><stop stop-opacity="1" stop-color="rgb(50.512695%, 22.781372%, 84.475708%)" offset="0.195312"/><stop stop-opacity="1" stop-color="rgb(50.041199%, 23.205566%, 84.558105%)" offset="0.199219"/><stop stop-opacity="1" stop-color="rgb(49.571228%, 23.631287%, 84.642029%)" offset="0.203125"/><stop stop-opacity="1" stop-color="rgb(49.101257%, 24.057007%, 84.725952%)" offset="0.207031"/><stop stop-opacity="1" stop-color="rgb(48.631287%, 24.482727%, 84.809875%)" offset="0.210938"/><stop stop-opacity="1" stop-color="rgb(48.15979%, 24.908447%, 84.893799%)" offset="0.214844"/><stop stop-opacity="1" stop-color="rgb(47.689819%, 25.334167%, 84.977722%)" offset="0.21875"/><stop stop-opacity="1" stop-color="rgb(47.219849%, 25.758362%, 85.06012%)" offset="0.222656"/><stop stop-opacity="1" stop-color="rgb(46.749878%, 26.184082%, 85.144043%)" offset="0.226562"/><stop stop-opacity="1" stop-color="rgb(46.278381%, 26.609802%, 85.227966%)" offset="0.230469"/><stop stop-opacity="1" stop-color="rgb(45.808411%, 27.035522%, 85.31189%)" offset="0.234375"/><stop stop-opacity="1" stop-color="rgb(45.33844%, 27.461243%, 85.394287%)" offset="0.238281"/><stop stop-opacity="1" stop-color="rgb(44.868469%, 27.886963%, 85.47821%)" offset="0.242188"/><stop stop-opacity="1" stop-color="rgb(44.396973%, 28.311157%, 85.562134%)" offset="0.246094"/><stop stop-opacity="1" stop-color="rgb(43.927002%, 28.736877%, 85.646057%)" offset="0.25"/><stop stop-opacity="1" stop-color="rgb(43.457031%, 29.162598%, 85.728455%)" offset="0.253906"/><stop stop-opacity="1" stop-color="rgb(42.987061%, 29.588318%, 85.812378%)" offset="0.257812"/><stop stop-opacity="1" stop-color="rgb(42.515564%, 30.014038%, 85.896301%)" offset="0.261719"/><stop stop-opacity="1" stop-color="rgb(42.045593%, 30.439758%, 85.980225%)" offset="0.265625"/><stop stop-opacity="1" stop-color="rgb(41.574097%, 30.863953%, 86.062622%)" offset="0.269531"/><stop stop-opacity="1" stop-color="rgb(41.104126%, 31.289673%, 86.146545%)" offset="0.273438"/><stop stop-opacity="1" stop-color="rgb(40.634155%, 31.715393%, 86.230469%)" offset="0.277344"/><stop stop-opacity="1" stop-color="rgb(40.164185%, 32.141113%, 86.314392%)" offset="0.28125"/><stop stop-opacity="1" stop-color="rgb(39.692688%, 32.566833%, 86.398315%)" offset="0.285156"/><stop stop-opacity="1" stop-color="rgb(39.222717%, 32.992554%, 86.482239%)" offset="0.289063"/><stop stop-opacity="1" stop-color="rgb(38.752747%, 33.416748%, 86.564636%)" offset="0.292969"/><stop stop-opacity="1" stop-color="rgb(38.282776%, 33.842468%, 86.64856%)" offset="0.296875"/><stop stop-opacity="1" stop-color="rgb(37.860107%, 34.225464%, 86.724854%)" offset="0.300781"/><stop stop-opacity="1" stop-color="rgb(37.438965%, 34.608459%, 86.802673%)" offset="0.304688"/><stop stop-opacity="1" stop-color="rgb(37.037659%, 34.971619%, 86.875916%)" offset="0.308594"/><stop stop-opacity="1" stop-color="rgb(36.636353%, 35.336304%, 86.950684%)" offset="0.3125"/><stop stop-opacity="1" stop-color="rgb(36.235046%, 35.699463%, 87.023926%)" offset="0.316406"/><stop stop-opacity="1" stop-color="rgb(35.83374%, 36.064148%, 87.098694%)" offset="0.320313"/><stop stop-opacity="1" stop-color="rgb(35.432434%, 36.428833%, 87.171936%)" offset="0.324219"/><stop stop-opacity="1" stop-color="rgb(35.032654%, 36.793518%, 87.245178%)" offset="0.328125"/><stop stop-opacity="1" stop-color="rgb(34.631348%, 37.156677%, 87.31842%)" offset="0.332031"/><stop stop-opacity="1" stop-color="rgb(34.230042%, 37.521362%, 87.393188%)" offset="0.335938"/><stop stop-opacity="1" stop-color="rgb(33.828735%, 37.884521%, 87.466431%)" offset="0.339844"/><stop stop-opacity="1" stop-color="rgb(33.427429%, 38.249207%, 87.541199%)" offset="0.34375"/><stop stop-opacity="1" stop-color="rgb(33.026123%, 38.613892%, 87.614441%)" offset="0.347656"/><stop stop-opacity="1" stop-color="rgb(32.626343%, 38.978577%, 87.689209%)" offset="0.351563"/><stop stop-opacity="1" stop-color="rgb(32.225037%, 39.341736%, 87.762451%)" offset="0.355469"/><stop stop-opacity="1" stop-color="rgb(31.82373%, 39.706421%, 87.837219%)" offset="0.359375"/><stop stop-opacity="1" stop-color="rgb(31.422424%, 40.06958%, 87.910461%)" offset="0.363281"/><stop stop-opacity="1" stop-color="rgb(31.021118%, 40.434265%, 87.985229%)" offset="0.367188"/><stop stop-opacity="1" stop-color="rgb(30.619812%, 40.797424%, 88.058472%)" offset="0.371094"/><stop stop-opacity="1" stop-color="rgb(30.218506%, 41.162109%, 88.131714%)" offset="0.375"/><stop stop-opacity="1" stop-color="rgb(29.8172%, 41.526794%, 88.204956%)" offset="0.378906"/><stop stop-opacity="1" stop-color="rgb(29.417419%, 41.891479%, 88.279724%)" offset="0.382812"/><stop stop-opacity="1" stop-color="rgb(29.016113%, 42.254639%, 88.352966%)" offset="0.386719"/><stop stop-opacity="1" stop-color="rgb(28.614807%, 42.619324%, 88.427734%)" offset="0.390625"/><stop stop-opacity="1" stop-color="rgb(28.213501%, 42.982483%, 88.500977%)" offset="0.394531"/><stop stop-opacity="1" stop-color="rgb(27.812195%, 43.347168%, 88.575745%)" offset="0.398438"/><stop stop-opacity="1" stop-color="rgb(27.410889%, 43.711853%, 88.648987%)" offset="0.402344"/><stop stop-opacity="1" stop-color="rgb(27.011108%, 44.076538%, 88.723755%)" offset="0.40625"/><stop stop-opacity="1" stop-color="rgb(26.609802%, 44.439697%, 88.796997%)" offset="0.410156"/><stop stop-opacity="1" stop-color="rgb(26.208496%, 44.804382%, 88.871765%)" offset="0.414062"/><stop stop-opacity="1" stop-color="rgb(25.80719%, 45.167542%, 88.945007%)" offset="0.417969"/><stop stop-opacity="1" stop-color="rgb(25.405884%, 45.532227%, 89.01825%)" offset="0.421875"/><stop stop-opacity="1" stop-color="rgb(25.004578%, 45.895386%, 89.091492%)" offset="0.425781"/><stop stop-opacity="1" stop-color="rgb(24.603271%, 46.260071%, 89.16626%)" offset="0.429688"/><stop stop-opacity="1" stop-color="rgb(24.201965%, 46.624756%, 89.239502%)" offset="0.433594"/><stop stop-opacity="1" stop-color="rgb(23.802185%, 46.989441%, 89.31427%)" offset="0.4375"/><stop stop-opacity="1" stop-color="rgb(23.400879%, 47.3526%, 89.387512%)" offset="0.441406"/><stop stop-opacity="1" stop-color="rgb(22.999573%, 47.717285%, 89.46228%)" offset="0.445312"/><stop stop-opacity="1" stop-color="rgb(22.598267%, 48.080444%, 89.535522%)" offset="0.449219"/><stop stop-opacity="1" stop-color="rgb(22.19696%, 48.445129%, 89.610291%)" offset="0.453125"/><stop stop-opacity="1" stop-color="rgb(21.795654%, 48.809814%, 89.683533%)" offset="0.457031"/><stop stop-opacity="1" stop-color="rgb(21.395874%, 49.1745%, 89.758301%)" offset="0.460938"/><stop stop-opacity="1" stop-color="rgb(20.994568%, 49.537659%, 89.831543%)" offset="0.464844"/><stop stop-opacity="1" stop-color="rgb(20.593262%, 49.902344%, 89.906311%)" offset="0.46875"/><stop stop-opacity="1" stop-color="rgb(20.191956%, 50.265503%, 89.979553%)" offset="0.472656"/><stop stop-opacity="1" stop-color="rgb(19.790649%, 50.630188%, 90.052795%)" offset="0.476562"/><stop stop-opacity="1" stop-color="rgb(19.389343%, 50.993347%, 90.126038%)" offset="0.480469"/><stop stop-opacity="1" stop-color="rgb(18.989563%, 51.358032%, 90.200806%)" offset="0.484375"/><stop stop-opacity="1" stop-color="rgb(18.588257%, 51.722717%, 90.274048%)" offset="0.488281"/><stop stop-opacity="1" stop-color="rgb(18.186951%, 52.087402%, 90.348816%)" offset="0.492188"/><stop stop-opacity="1" stop-color="rgb(17.785645%, 52.450562%, 90.422058%)" offset="0.496094"/><stop stop-opacity="1" stop-color="rgb(17.384338%, 52.815247%, 90.496826%)" offset="0.5"/><stop stop-opacity="1" stop-color="rgb(16.983032%, 53.178406%, 90.570068%)" offset="0.503906"/><stop stop-opacity="1" stop-color="rgb(16.581726%, 53.543091%, 90.644836%)" offset="0.507812"/><stop stop-opacity="1" stop-color="rgb(16.18042%, 53.907776%, 90.718079%)" offset="0.511719"/><stop stop-opacity="1" stop-color="rgb(15.78064%, 54.272461%, 90.792847%)" offset="0.515625"/><stop stop-opacity="1" stop-color="rgb(15.379333%, 54.63562%, 90.866089%)" offset="0.519531"/><stop stop-opacity="1" stop-color="rgb(14.978027%, 55.000305%, 90.939331%)" offset="0.523438"/><stop stop-opacity="1" stop-color="rgb(14.576721%, 55.363464%, 91.012573%)" offset="0.527344"/><stop stop-opacity="1" stop-color="rgb(14.175415%, 55.728149%, 91.087341%)" offset="0.53125"/><stop stop-opacity="1" stop-color="rgb(13.774109%, 56.091309%, 91.160583%)" offset="0.535156"/><stop stop-opacity="1" stop-color="rgb(13.374329%, 56.455994%, 91.235352%)" offset="0.539063"/><stop stop-opacity="1" stop-color="rgb(12.973022%, 56.820679%, 91.308594%)" offset="0.542969"/><stop stop-opacity="1" stop-color="rgb(12.571716%, 57.185364%, 91.383362%)" offset="0.546875"/><stop stop-opacity="1" stop-color="rgb(12.17041%, 57.548523%, 91.456604%)" offset="0.550781"/><stop stop-opacity="1" stop-color="rgb(11.769104%, 57.913208%, 91.531372%)" offset="0.554688"/><stop stop-opacity="1" stop-color="rgb(11.367798%, 58.276367%, 91.604614%)" offset="0.558594"/><stop stop-opacity="1" stop-color="rgb(10.966492%, 58.641052%, 91.679382%)" offset="0.5625"/><stop stop-opacity="1" stop-color="rgb(10.565186%, 59.005737%, 91.752625%)" offset="0.566406"/><stop stop-opacity="1" stop-color="rgb(10.165405%, 59.370422%, 91.825867%)" offset="0.570313"/><stop stop-opacity="1" stop-color="rgb(9.764099%, 59.733582%, 91.899109%)" offset="0.574219"/><stop stop-opacity="1" stop-color="rgb(9.362793%, 60.098267%, 91.973877%)" offset="0.578125"/><stop stop-opacity="1" stop-color="rgb(8.961487%, 60.461426%, 92.047119%)" offset="0.582031"/><stop stop-opacity="1" stop-color="rgb(8.560181%, 60.826111%, 92.121887%)" offset="0.585938"/><stop stop-opacity="1" stop-color="rgb(8.158875%, 61.18927%, 92.195129%)" offset="0.589844"/><stop stop-opacity="1" stop-color="rgb(7.759094%, 61.553955%, 92.269897%)" offset="0.59375"/><stop stop-opacity="1" stop-color="rgb(7.357788%, 61.91864%, 92.34314%)" offset="0.597656"/><stop stop-opacity="1" stop-color="rgb(6.956482%, 62.283325%, 92.417908%)" offset="0.601563"/><stop stop-opacity="1" stop-color="rgb(6.555176%, 62.646484%, 92.49115%)" offset="0.605469"/><stop stop-opacity="1" stop-color="rgb(6.15387%, 63.011169%, 92.565918%)" offset="0.609375"/><stop stop-opacity="1" stop-color="rgb(5.752563%, 63.374329%, 92.63916%)" offset="0.613281"/><stop stop-opacity="1" stop-color="rgb(5.352783%, 63.739014%, 92.713928%)" offset="0.617188"/><stop stop-opacity="1" stop-color="rgb(4.951477%, 64.103699%, 92.78717%)" offset="0.621094"/><stop stop-opacity="1" stop-color="rgb(4.550171%, 64.468384%, 92.860413%)" offset="0.625"/><stop stop-opacity="1" stop-color="rgb(4.148865%, 64.831543%, 92.933655%)" offset="0.628906"/><stop stop-opacity="1" stop-color="rgb(3.747559%, 65.196228%, 93.008423%)" offset="0.632813"/><stop stop-opacity="1" stop-color="rgb(3.346252%, 65.559387%, 93.081665%)" offset="0.636719"/><stop stop-opacity="1" stop-color="rgb(2.944946%, 65.924072%, 93.156433%)" offset="0.640625"/><stop stop-opacity="1" stop-color="rgb(2.54364%, 66.287231%, 93.229675%)" offset="0.644531"/><stop stop-opacity="1" stop-color="rgb(2.14386%, 66.651917%, 93.304443%)" offset="0.648438"/><stop stop-opacity="1" stop-color="rgb(1.742554%, 67.016602%, 93.377686%)" offset="0.652344"/><stop stop-opacity="1" stop-color="rgb(1.341248%, 67.381287%, 93.452454%)" offset="0.65625"/><stop stop-opacity="1" stop-color="rgb(0.939941%, 67.744446%, 93.525696%)" offset="0.660156"/><stop stop-opacity="1" stop-color="rgb(0.538635%, 68.109131%, 93.600464%)" offset="0.664063"/><stop stop-opacity="1" stop-color="rgb(0.268555%, 68.467712%, 93.67218%)" offset="0.667969"/><stop stop-opacity="1" stop-color="rgb(0%, 68.826294%, 93.745422%)" offset="0.671875"/><stop stop-opacity="1" stop-color="rgb(0%, 69.172668%, 93.814087%)" offset="0.675781"/><stop stop-opacity="1" stop-color="rgb(0%, 69.520569%, 93.884277%)" offset="0.679688"/><stop stop-opacity="1" stop-color="rgb(0%, 69.866943%, 93.952942%)" offset="0.683594"/><stop stop-opacity="1" stop-color="rgb(0%, 70.213318%, 94.023132%)" offset="0.6875"/><stop stop-opacity="1" stop-color="rgb(0%, 70.559692%, 94.091797%)" offset="0.691406"/><stop stop-opacity="1" stop-color="rgb(0%, 70.907593%, 94.161987%)" offset="0.695313"/><stop stop-opacity="1" stop-color="rgb(0%, 71.253967%, 94.232178%)" offset="0.699219"/><stop stop-opacity="1" stop-color="rgb(0%, 71.601868%, 94.302368%)" offset="0.703125"/><stop stop-opacity="1" stop-color="rgb(0%, 71.948242%, 94.371033%)" offset="0.707031"/><stop stop-opacity="1" stop-color="rgb(0%, 72.296143%, 94.441223%)" offset="0.710938"/><stop stop-opacity="1" stop-color="rgb(0%, 72.642517%, 94.509888%)" offset="0.714844"/><stop stop-opacity="1" stop-color="rgb(0%, 72.990417%, 94.580078%)" offset="0.71875"/><stop stop-opacity="1" stop-color="rgb(0%, 73.336792%, 94.648743%)" offset="0.722656"/><stop stop-opacity="1" stop-color="rgb(0%, 73.683167%, 94.718933%)" offset="0.726563"/><stop stop-opacity="1" stop-color="rgb(0%, 74.029541%, 94.789124%)" offset="0.730469"/><stop stop-opacity="1" stop-color="rgb(0%, 74.377441%, 94.859314%)" offset="0.734375"/><stop stop-opacity="1" stop-color="rgb(0%, 74.723816%, 94.927979%)" offset="0.738281"/><stop stop-opacity="1" stop-color="rgb(0%, 75.071716%, 94.998169%)" offset="0.742188"/><stop stop-opacity="1" stop-color="rgb(0%, 75.418091%, 95.066833%)" offset="0.746094"/><stop stop-opacity="1" stop-color="rgb(0%, 75.765991%, 95.137024%)" offset="0.75"/><stop stop-opacity="1" stop-color="rgb(0%, 76.112366%, 95.205688%)" offset="0.753906"/><stop stop-opacity="1" stop-color="rgb(0%, 76.460266%, 95.275879%)" offset="0.757813"/><stop stop-opacity="1" stop-color="rgb(0%, 76.806641%, 95.346069%)" offset="0.761719"/><stop stop-opacity="1" stop-color="rgb(0%, 77.153015%, 95.41626%)" offset="0.765625"/><stop stop-opacity="1" stop-color="rgb(0%, 77.49939%, 95.484924%)" offset="0.769531"/><stop stop-opacity="1" stop-color="rgb(0%, 77.84729%, 95.555115%)" offset="0.773438"/><stop stop-opacity="1" stop-color="rgb(0%, 78.193665%, 95.623779%)" offset="0.777344"/><stop stop-opacity="1" stop-color="rgb(0%, 78.541565%, 95.69397%)" offset="0.78125"/><stop stop-opacity="1" stop-color="rgb(0%, 78.887939%, 95.762634%)" offset="0.785156"/><stop stop-opacity="1" stop-color="rgb(0%, 79.23584%, 95.832825%)" offset="0.789063"/><stop stop-opacity="1" stop-color="rgb(0%, 79.582214%, 95.903015%)" offset="0.792969"/><stop stop-opacity="1" stop-color="rgb(0%, 79.928589%, 95.973206%)" offset="0.796875"/><stop stop-opacity="1" stop-color="rgb(0%, 80.274963%, 96.04187%)" offset="0.800781"/><stop stop-opacity="1" stop-color="rgb(0%, 80.622864%, 96.112061%)" offset="0.804688"/><stop stop-opacity="1" stop-color="rgb(0%, 80.969238%, 96.180725%)" offset="0.808594"/><stop stop-opacity="1" stop-color="rgb(0%, 81.317139%, 96.250916%)" offset="0.8125"/><stop stop-opacity="1" stop-color="rgb(0%, 81.663513%, 96.31958%)" offset="0.816406"/><stop stop-opacity="1" stop-color="rgb(0%, 82.011414%, 96.389771%)" offset="0.820313"/><stop stop-opacity="1" stop-color="rgb(0%, 82.357788%, 96.458435%)" offset="0.824219"/><stop stop-opacity="1" stop-color="rgb(0%, 82.705688%, 96.528625%)" offset="0.828125"/><stop stop-opacity="1" stop-color="rgb(0%, 83.052063%, 96.598816%)" offset="0.832031"/><stop stop-opacity="1" stop-color="rgb(0%, 83.398438%, 96.669006%)" offset="0.835938"/><stop stop-opacity="1" stop-color="rgb(0%, 83.744812%, 96.737671%)" offset="0.839844"/><stop stop-opacity="1" stop-color="rgb(0%, 84.092712%, 96.807861%)" offset="0.84375"/><stop stop-opacity="1" stop-color="rgb(0%, 84.439087%, 96.876526%)" offset="0.847656"/><stop stop-opacity="1" stop-color="rgb(0%, 84.786987%, 96.946716%)" offset="0.851563"/><stop stop-opacity="1" stop-color="rgb(0%, 85.133362%, 97.015381%)" offset="0.855469"/><stop stop-opacity="1" stop-color="rgb(0%, 85.481262%, 97.085571%)" offset="0.859375"/><stop stop-opacity="1" stop-color="rgb(0%, 85.827637%, 97.155762%)" offset="0.863281"/><stop stop-opacity="1" stop-color="rgb(0%, 86.174011%, 97.225952%)" offset="0.867188"/><stop stop-opacity="1" stop-color="rgb(0%, 86.520386%, 97.294617%)" offset="0.871094"/><stop stop-opacity="1" stop-color="rgb(0%, 86.868286%, 97.364807%)" offset="0.875"/><stop stop-opacity="1" stop-color="rgb(0%, 87.214661%, 97.433472%)" offset="0.878906"/><stop stop-opacity="1" stop-color="rgb(0%, 87.562561%, 97.503662%)" offset="0.882813"/><stop stop-opacity="1" stop-color="rgb(0%, 87.908936%, 97.572327%)" offset="0.886719"/><stop stop-opacity="1" stop-color="rgb(0%, 88.256836%, 97.642517%)" offset="0.890625"/><stop stop-opacity="1" stop-color="rgb(0%, 88.60321%, 97.712708%)" offset="0.894531"/><stop stop-opacity="1" stop-color="rgb(0%, 88.951111%, 97.782898%)" offset="0.898438"/><stop stop-opacity="1" stop-color="rgb(0%, 89.297485%, 97.851562%)" offset="0.902344"/><stop stop-opacity="1" stop-color="rgb(0%, 89.64386%, 97.921753%)" offset="0.90625"/><stop stop-opacity="1" stop-color="rgb(0%, 89.990234%, 97.990417%)" offset="0.910156"/><stop stop-opacity="1" stop-color="rgb(0%, 90.338135%, 98.060608%)" offset="0.914063"/><stop stop-opacity="1" stop-color="rgb(0%, 90.684509%, 98.129272%)" offset="0.917969"/><stop stop-opacity="1" stop-color="rgb(0%, 91.03241%, 98.199463%)" offset="0.921875"/><stop stop-opacity="1" stop-color="rgb(0%, 91.378784%, 98.269653%)" offset="0.925781"/><stop stop-opacity="1" stop-color="rgb(0%, 91.726685%, 98.339844%)" offset="0.929688"/><stop stop-opacity="1" stop-color="rgb(0%, 92.073059%, 98.408508%)" offset="0.933594"/><stop stop-opacity="1" stop-color="rgb(0%, 92.420959%, 98.478699%)" offset="0.9375"/><stop stop-opacity="1" stop-color="rgb(0%, 92.767334%, 98.547363%)" offset="0.941406"/><stop stop-opacity="1" stop-color="rgb(0%, 93.113708%, 98.617554%)" offset="0.945313"/><stop stop-opacity="1" stop-color="rgb(0%, 93.460083%, 98.686218%)" offset="0.949219"/><stop stop-opacity="1" stop-color="rgb(0%, 93.807983%, 98.756409%)" offset="0.953125"/><stop stop-opacity="1" stop-color="rgb(0%, 94.154358%, 98.826599%)" offset="0.957031"/><stop stop-opacity="1" stop-color="rgb(0%, 94.502258%, 98.89679%)" offset="0.960938"/><stop stop-opacity="1" stop-color="rgb(0%, 94.848633%, 98.965454%)" offset="0.964844"/><stop stop-opacity="1" stop-color="rgb(0%, 95.196533%, 99.035645%)" offset="0.96875"/><stop stop-opacity="1" stop-color="rgb(0%, 95.542908%, 99.104309%)" offset="0.972656"/><stop stop-opacity="1" stop-color="rgb(0%, 95.889282%, 99.1745%)" offset="0.976563"/><stop stop-opacity="1" stop-color="rgb(0%, 96.235657%, 99.243164%)" offset="0.980469"/><stop stop-opacity="1" stop-color="rgb(0%, 96.583557%, 99.313354%)" offset="0.984375"/><stop stop-opacity="1" stop-color="rgb(0%, 96.929932%, 99.383545%)" offset="0.988281"/><stop stop-opacity="1" stop-color="rgb(0%, 97.277832%, 99.453735%)" offset="0.992187"/><stop stop-opacity="1" stop-color="rgb(0%, 97.624207%, 99.5224%)" offset="0.996094"/><stop stop-opacity="1" stop-color="rgb(0%, 97.972107%, 99.59259%)" offset="1"/></linearGradient></defs><g clip-path="url(#id1)"><g clip-path="url(#id2)"><path fill="url(#id3)" d="M 35.695312 0 L 35.695312 28.304688 L 61.097656 28.304688 L 61.097656 0 Z M 35.695312 0 " fill-rule="nonzero"/></g></g><g fill="#ffffff" fill-opacity="1"><g transform="translate(99.22431, 14.995122)"><g><path d="M 0.140625 -0.03125 L 0.140625 0 L 0.015625 0 L 0.015625 -0.171875 L 0.140625 -0.171875 L 0.140625 -0.125 L 0.0625 -0.125 L 0.0625 -0.09375 L 0.125 -0.09375 L 0.125 -0.0625 L 0.0625 -0.0625 L 0.0625 -0.03125 Z M 0.140625 -0.03125 "/></g></g></g><g fill="#ffffff" fill-opacity="1"><g transform="translate(99.411855, 14.995122)"><g><path d="M 0.09375 -0.125 C 0.113281 -0.125 0.125 -0.117188 0.125 -0.109375 C 0.132812 -0.0976562 0.140625 -0.0859375 0.140625 -0.078125 L 0.140625 0 L 0.109375 0 L 0.109375 -0.0625 C 0.109375 -0.0703125 0.101562 -0.078125 0.09375 -0.078125 C 0.09375 -0.0859375 0.0859375 -0.09375 0.078125 -0.09375 C 0.0664062 -0.09375 0.0625 -0.0859375 0.0625 -0.078125 C 0.0625 -0.078125 0.0625 -0.0703125 0.0625 -0.0625 L 0.0625 0 L 0.015625 0 L 0.015625 -0.125 L 0.046875 -0.125 L 0.046875 -0.109375 C 0.0546875 -0.117188 0.0625 -0.125 0.0625 -0.125 C 0.0703125 -0.125 0.0820312 -0.125 0.09375 -0.125 Z M 0.09375 -0.125 "/></g></g></g><g fill="#ffffff" fill-opacity="1"><g transform="translate(99.604118, 14.995122)"><g><path d="M 0.078125 0 C 0.0664062 0 0.0546875 0 0.046875 0 C 0.0351562 -0.0078125 0.0234375 -0.0195312 0.015625 -0.03125 C 0.00390625 -0.0390625 0 -0.0507812 0 -0.0625 C 0 -0.0703125 0.00390625 -0.0820312 0.015625 -0.09375 C 0.0234375 -0.101562 0.0351562 -0.109375 0.046875 -0.109375 C 0.0546875 -0.117188 0.0664062 -0.125 0.078125 -0.125 C 0.0859375 -0.125 0.0976562 -0.117188 0.109375 -0.109375 C 0.117188 -0.109375 0.128906 -0.101562 0.140625 -0.09375 L 0.109375 -0.078125 C 0.0976562 -0.0859375 0.0859375 -0.09375 0.078125 -0.09375 C 0.0664062 -0.09375 0.0546875 -0.0859375 0.046875 -0.078125 C 0.046875 -0.078125 0.046875 -0.0703125 0.046875 -0.0625 C 0.046875 -0.0507812 0.046875 -0.0390625 0.046875 -0.03125 C 0.0546875 -0.03125 0.0664062 -0.03125 0.078125 -0.03125 C 0.0859375 -0.03125 0.0976562 -0.0351562 0.109375 -0.046875 L 0.140625 -0.03125 C 0.128906 -0.0195312 0.117188 -0.0078125 0.109375 0 C 0.0976562 0 0.0859375 0 0.078125 0 Z M 0.078125 0 "/></g></g></g><g fill="#ffffff" fill-opacity="1"><g transform="translate(99.772791, 14.995122)"><g><path d="M 0.078125 0 C 0.0664062 0 0.0546875 0 0.046875 0 C 0.0351562 -0.0078125 0.0234375 -0.0195312 0.015625 -0.03125 C 0.00390625 -0.0390625 0 -0.0507812 0 -0.0625 C 0 -0.0703125 0.00390625 -0.0820312 0.015625 -0.09375 C 0.0234375 -0.101562 0.0351562 -0.109375 0.046875 -0.109375 C 0.0546875 -0.117188 0.0664062 -0.125 0.078125 -0.125 C 0.0859375 -0.125 0.0976562 -0.117188 0.109375 -0.109375 C 0.117188 -0.109375 0.125 -0.101562 0.125 -0.09375 C 0.132812 -0.0820312 0.140625 -0.0703125 0.140625 -0.0625 C 0.140625 -0.0507812 0.132812 -0.0390625 0.125 -0.03125 C 0.125 -0.0195312 0.117188 -0.0078125 0.109375 0 C 0.0976562 0 0.0859375 0 0.078125 0 Z M 0.078125 -0.03125 C 0.0859375 -0.03125 0.09375 -0.03125 0.09375 -0.03125 C 0.101562 -0.0390625 0.109375 -0.0507812 0.109375 -0.0625 C 0.109375 -0.0703125 0.101562 -0.078125 0.09375 -0.078125 C 0.09375 -0.0859375 0.0859375 -0.09375 0.078125 -0.09375 C 0.0664062 -0.09375 0.0546875 -0.0859375 0.046875 -0.078125 C 0.046875 -0.078125 0.046875 -0.0703125 0.046875 -0.0625 C 0.046875 -0.0507812 0.046875 -0.0390625 0.046875 -0.03125 C 0.0546875 -0.03125 0.0664062 -0.03125 0.078125 -0.03125 Z M 0.078125 -0.03125 "/></g></g></g><g fill="#ffffff" fill-opacity="1"><g transform="translate(99.956562, 14.995122)"><g><path d="M 0.140625 -0.171875 L 0.140625 0 L 0.109375 0 L 0.109375 -0.015625 C 0.0976562 -0.00390625 0.0820312 0 0.0625 0 C 0.0625 0 0.0546875 0 0.046875 0 C 0.0351562 -0.0078125 0.0234375 -0.0195312 0.015625 -0.03125 C 0.00390625 -0.0390625 0 -0.0507812 0 -0.0625 C 0 -0.0703125 0.00390625 -0.0820312 0.015625 -0.09375 C 0.0234375 -0.101562 0.0351562 -0.109375 0.046875 -0.109375 C 0.0546875 -0.117188 0.0625 -0.125 0.0625 -0.125 C 0.0820312 -0.125 0.0976562 -0.117188 0.109375 -0.109375 L 0.109375 -0.171875 Z M 0.078125 -0.03125 C 0.0859375 -0.03125 0.09375 -0.03125 0.09375 -0.03125 C 0.101562 -0.0390625 0.109375 -0.0507812 0.109375 -0.0625 C 0.109375 -0.0703125 0.101562 -0.078125 0.09375 -0.078125 C 0.09375 -0.0859375 0.0859375 -0.09375 0.078125 -0.09375 C 0.0664062 -0.09375 0.0546875 -0.0859375 0.046875 -0.078125 C 0.046875 -0.078125 0.046875 -0.0703125 0.046875 -0.0625 C 0.046875 -0.0507812 0.046875 -0.0390625 0.046875 -0.03125 C 0.0546875 -0.03125 0.0664062 -0.03125 0.078125 -0.03125 Z M 0.078125 -0.03125 "/></g></g></g><g fill="#ffffff" fill-opacity="1"><g transform="translate(100.149061, 14.995122)"><g><path d="M 0.015625 -0.125 L 0.0625 -0.125 L 0.0625 0 L 0.015625 0 Z M 0.03125 -0.140625 C 0.03125 -0.140625 0.0234375 -0.140625 0.015625 -0.140625 C 0.015625 -0.148438 0.015625 -0.160156 0.015625 -0.171875 C 0.0234375 -0.179688 0.03125 -0.1875 0.03125 -0.1875 C 0.0390625 -0.1875 0.046875 -0.179688 0.046875 -0.171875 C 0.0546875 -0.171875 0.0625 -0.171875 0.0625 -0.171875 C 0.0625 -0.160156 0.0546875 -0.148438 0.046875 -0.140625 C 0.046875 -0.140625 0.0390625 -0.140625 0.03125 -0.140625 Z M 0.03125 -0.140625 "/></g></g></g><g fill="#ffffff" fill-opacity="1"><g transform="translate(100.249321, 14.995122)"><g><path d="M 0.09375 -0.125 C 0.113281 -0.125 0.125 -0.117188 0.125 -0.109375 C 0.132812 -0.0976562 0.140625 -0.0859375 0.140625 -0.078125 L 0.140625 0 L 0.109375 0 L 0.109375 -0.0625 C 0.109375 -0.0703125 0.101562 -0.078125 0.09375 -0.078125 C 0.09375 -0.0859375 0.0859375 -0.09375 0.078125 -0.09375 C 0.0664062 -0.09375 0.0625 -0.0859375 0.0625 -0.078125 C 0.0625 -0.078125 0.0625 -0.0703125 0.0625 -0.0625 L 0.0625 0 L 0.015625 0 L 0.015625 -0.125 L 0.046875 -0.125 L 0.046875 -0.109375 C 0.0546875 -0.117188 0.0625 -0.125 0.0625 -0.125 C 0.0703125 -0.125 0.0820312 -0.125 0.09375 -0.125 Z M 0.09375 -0.125 "/></g></g></g><g fill="#7f3bd8" fill-opacity="1"><g transform="translate(63.010448, 17.323537)"><g><path d="M 5.78125 -1.609375 L 5.78125 0 L 0.515625 0 L 0.515625 -6.328125 L 5.65625 -6.328125 L 5.65625 -4.71875 L 2.609375 -4.71875 L 2.609375 -3.984375 L 5.296875 -3.984375 L 5.296875 -2.4375 L 2.609375 -2.4375 L 2.609375 -1.609375 Z M 5.78125 -1.609375 "/></g></g></g><g fill="#7f3bd8" fill-opacity="1"><g transform="translate(70.216569, 17.323537)"><g><path d="M 3.890625 -5.046875 C 4.492188 -5.046875 4.984375 -4.859375 5.359375 -4.484375 C 5.734375 -4.117188 5.921875 -3.566406 5.921875 -2.828125 L 5.921875 0 L 3.875 0 L 3.875 -2.46875 C 3.875 -3.03125 3.671875 -3.3125 3.265625 -3.3125 C 3.035156 -3.3125 2.847656 -3.234375 2.703125 -3.078125 C 2.566406 -2.921875 2.5 -2.671875 2.5 -2.328125 L 2.5 0 L 0.453125 0 L 0.453125 -4.953125 L 2.390625 -4.953125 L 2.390625 -4.453125 C 2.585938 -4.648438 2.8125 -4.796875 3.0625 -4.890625 C 3.320312 -4.992188 3.597656 -5.046875 3.890625 -5.046875 Z M 3.890625 -5.046875 "/></g></g></g><g fill="#6553dc" fill-opacity="1"><g transform="translate(77.679121, 17.323537)"><g><path d="M 3.796875 0.140625 C 3.117188 0.140625 2.507812 0 1.96875 -0.28125 C 1.4375 -0.5625 1.019531 -0.953125 0.71875 -1.453125 C 0.414062 -1.953125 0.265625 -2.523438 0.265625 -3.171875 C 0.265625 -3.804688 0.414062 -4.375 0.71875 -4.875 C 1.019531 -5.382812 1.4375 -5.78125 1.96875 -6.0625 C 2.507812 -6.34375 3.117188 -6.484375 3.796875 -6.484375 C 4.410156 -6.484375 4.957031 -6.375 5.4375 -6.15625 C 5.914062 -5.9375 6.3125 -5.625 6.625 -5.21875 L 5.28125 -4 C 4.882812 -4.5 4.425781 -4.75 3.90625 -4.75 C 3.457031 -4.75 3.097656 -4.601562 2.828125 -4.3125 C 2.554688 -4.03125 2.421875 -3.648438 2.421875 -3.171875 C 2.421875 -2.679688 2.554688 -2.289062 2.828125 -2 C 3.097656 -1.71875 3.457031 -1.578125 3.90625 -1.578125 C 4.425781 -1.578125 4.882812 -1.828125 5.28125 -2.328125 L 6.625 -1.125 C 6.3125 -0.707031 5.914062 -0.390625 5.4375 -0.171875 C 4.957031 0.0351562 4.410156 0.140625 3.796875 0.140625 Z M 3.796875 0.140625 "/></g></g></g><g fill="#6553dc" fill-opacity="1"><g transform="translate(85.527164, 17.323537)"><g><path d="M 3.0625 0.09375 C 2.519531 0.09375 2.03125 -0.015625 1.59375 -0.234375 C 1.15625 -0.453125 0.8125 -0.753906 0.5625 -1.140625 C 0.3125 -1.535156 0.1875 -1.984375 0.1875 -2.484375 C 0.1875 -2.972656 0.3125 -3.410156 0.5625 -3.796875 C 0.8125 -4.191406 1.15625 -4.5 1.59375 -4.71875 C 2.03125 -4.9375 2.519531 -5.046875 3.0625 -5.046875 C 3.625 -5.046875 4.125 -4.9375 4.5625 -4.71875 C 5 -4.5 5.335938 -4.191406 5.578125 -3.796875 C 5.816406 -3.410156 5.9375 -2.972656 5.9375 -2.484375 C 5.9375 -1.984375 5.816406 -1.535156 5.578125 -1.140625 C 5.335938 -0.753906 5 -0.453125 4.5625 -0.234375 C 4.125 -0.015625 3.625 0.09375 3.0625 0.09375 Z M 3.0625 -1.5 C 3.300781 -1.5 3.492188 -1.582031 3.640625 -1.75 C 3.796875 -1.925781 3.875 -2.171875 3.875 -2.484375 C 3.875 -2.785156 3.796875 -3.019531 3.640625 -3.1875 C 3.492188 -3.363281 3.300781 -3.453125 3.0625 -3.453125 C 2.832031 -3.453125 2.640625 -3.363281 2.484375 -3.1875 C 2.335938 -3.019531 2.265625 -2.785156 2.265625 -2.484375 C 2.265625 -2.171875 2.335938 -1.925781 2.484375 -1.75 C 2.640625 -1.582031 2.832031 -1.5 3.0625 -1.5 Z M 3.0625 -1.5 "/></g></g></g><g fill="#6553dc" fill-opacity="1"><g transform="translate(92.778493, 17.323537)"><g><path d="M 5.921875 -6.71875 L 5.921875 0 L 3.984375 0 L 3.984375 -0.40625 C 3.679688 -0.0703125 3.226562 0.09375 2.625 0.09375 C 2.1875 0.09375 1.785156 -0.0078125 1.421875 -0.21875 C 1.054688 -0.425781 0.765625 -0.722656 0.546875 -1.109375 C 0.335938 -1.503906 0.234375 -1.960938 0.234375 -2.484375 C 0.234375 -2.992188 0.335938 -3.441406 0.546875 -3.828125 C 0.765625 -4.222656 1.054688 -4.523438 1.421875 -4.734375 C 1.785156 -4.941406 2.1875 -5.046875 2.625 -5.046875 C 3.175781 -5.046875 3.59375 -4.898438 3.875 -4.609375 L 3.875 -6.71875 Z M 3.109375 -1.5 C 3.347656 -1.5 3.539062 -1.582031 3.6875 -1.75 C 3.84375 -1.925781 3.921875 -2.171875 3.921875 -2.484375 C 3.921875 -2.785156 3.84375 -3.019531 3.6875 -3.1875 C 3.539062 -3.363281 3.347656 -3.453125 3.109375 -3.453125 C 2.878906 -3.453125 2.6875 -3.363281 2.53125 -3.1875 C 2.382812 -3.019531 2.3125 -2.785156 2.3125 -2.484375 C 2.3125 -2.171875 2.382812 -1.925781 2.53125 -1.75 C 2.6875 -1.582031 2.878906 -1.5 3.109375 -1.5 Z M 3.109375 -1.5 "/></g></g></g><g fill="#3a7ae4" fill-opacity="1"><g transform="translate(100.269843, 17.323537)"><g><path d="M 0.453125 -4.953125 L 2.5 -4.953125 L 2.5 0 L 0.453125 0 Z M 1.46875 -5.34375 C 1.101562 -5.34375 0.804688 -5.441406 0.578125 -5.640625 C 0.359375 -5.835938 0.25 -6.085938 0.25 -6.390625 C 0.25 -6.691406 0.359375 -6.9375 0.578125 -7.125 C 0.804688 -7.320312 1.101562 -7.421875 1.46875 -7.421875 C 1.84375 -7.421875 2.140625 -7.328125 2.359375 -7.140625 C 2.585938 -6.953125 2.703125 -6.710938 2.703125 -6.421875 C 2.703125 -6.109375 2.585938 -5.847656 2.359375 -5.640625 C 2.140625 -5.441406 1.84375 -5.34375 1.46875 -5.34375 Z M 1.46875 -5.34375 "/></g></g></g><g fill="#3a7ae4" fill-opacity="1"><g transform="translate(104.338698, 17.323537)"><g><path d="M 3.890625 -5.046875 C 4.492188 -5.046875 4.984375 -4.859375 5.359375 -4.484375 C 5.734375 -4.117188 5.921875 -3.566406 5.921875 -2.828125 L 5.921875 0 L 3.875 0 L 3.875 -2.46875 C 3.875 -3.03125 3.671875 -3.3125 3.265625 -3.3125 C 3.035156 -3.3125 2.847656 -3.234375 2.703125 -3.078125 C 2.566406 -2.921875 2.5 -2.671875 2.5 -2.328125 L 2.5 0 L 0.453125 0 L 0.453125 -4.953125 L 2.390625 -4.953125 L 2.390625 -4.453125 C 2.585938 -4.648438 2.8125 -4.796875 3.0625 -4.890625 C 3.320312 -4.992188 3.597656 -5.046875 3.890625 -5.046875 Z M 3.890625 -5.046875 "/></g></g></g></svg>